<svg xmlns="http://www.w3.org/2000/svg" viewBox="0 0 24 24" fill="#000000" fill-rule="evenodd">
  <path d="M10.104 3.49997l-9.354 0c-0.19891 0-0.38968-0.07902-0.53033-0.21967-0.14065-0.14065-0.21967-0.33142-0.21967-0.53033 0-0.19891 0.07902-0.38968 0.21967-0.53033 0.14065-0.14065 0.33142-0.21967 0.53033-0.21967l9.354 0c0.16344-0.57592 0.51028-1.08281 0.9879-1.44374 0.47762-0.36094 1.05994-0.55623 1.6586-0.55623 0.59866 0 1.18098 0.19529 1.6586 0.55623 0.47762 0.36094 0.82446 0.86783 0.9879 1.44374l1.353 0c0.19891 0 0.38968 0.07902 0.53033 0.21967 0.14065 0.14065 0.21967 0.33142 0.21967 0.53033 0 0.19891-0.07902 0.38968-0.21967 0.53033-0.14065 0.14065-0.33142 0.21967-0.53033 0.21967l-1.354 0c-0.16373 0.57551-0.51064 1.08195-0.98813 1.44255-0.47749 0.36059-1.05952 0.55567-1.65787 0.55567-0.59835 0-1.18038-0.19508-1.65787-0.55567-0.47749-0.36059-0.82439-0.86703-0.98813-1.44255z m1.396-0.75c0-0.33152 0.1317-0.64946 0.36612-0.88388 0.23442-0.23442 0.55236-0.36612 0.88388-0.36612 0.33152 0 0.64946 0.1317 0.88388 0.36612 0.23442 0.23442 0.36612 0.55236 0.36612 0.88388 0 0.33152-0.1317 0.64946-0.36612 0.88389-0.23442 0.23442-0.55236 0.36612-0.88388 0.36611-0.33152 0-0.64946-0.1317-0.88388-0.36611-0.23442-0.23442-0.36612-0.55236-0.36612-0.88389z m-4.103 8.75l9.353 0c0.19891 0 0.38968-0.07902 0.53033-0.21966 0.14065-0.14065 0.21967-0.33142 0.21967-0.53034 0-0.19891-0.07902-0.38968-0.21967-0.53032-0.14065-0.14065-0.33142-0.21967-0.53033-0.21967l-9.353 0c-0.16344-0.57592-0.51028-1.08281-0.9879-1.44376-0.47762-0.36094-1.05994-0.55623-1.6586-0.55622-0.59866 0-1.18098 0.19529-1.6586 0.55622-0.47762 0.36094-0.82446 0.86783-0.9879 1.44376l-1.354 0c-0.19891 0-0.38968 0.07902-0.53033 0.21967-0.14065 0.14065-0.21967 0.33142-0.21967 0.53032 0 0.19891 0.07902 0.38968 0.21967 0.53034 0.14065 0.14065 0.33142 0.21967 0.53033 0.21966l1.354 0c0.16373 0.57551 0.51064 1.08195 0.98813 1.44255 0.47749 0.36059 1.05952 0.55567 1.65787 0.55567 0.59835 0 1.18038-0.19508 1.65787-0.55567 0.47749-0.36059 0.82439-0.86703 0.98813-1.44255m-3.896-0.75c0-0.33152 0.1317-0.64946 0.36612-0.88388 0.23442-0.23442 0.55236-0.36612 0.88388-0.36611 0.33152 0 0.64946 0.13169 0.88388 0.36611 0.23442 0.23442 0.36612 0.55236 0.36612 0.88388 0 0.33152-0.1317 0.64946-0.36612 0.88389-0.23442 0.23442-0.55236 0.36611-0.88388 0.36611-0.33152 0-0.64946-0.13169-0.88388-0.36611-0.23442-0.23442-0.36612-0.55236-0.36612-0.88389z"/>
</svg>
