<svg width="48" height="48" viewBox="0 0 48 48" fill="none" xmlns="http://www.w3.org/2000/svg">
<rect width="48" height="48" rx="24" fill="black"/>
<path d="M9.52106 31V19.08H17.2811V20.76H11.4091V24.344H16.6411V26.024H11.4091V31H9.52106ZM18.8648 31V19.08H23.2008C24.0008 19.08 24.7048 19.2293 25.3128 19.528C25.9315 19.816 26.4115 20.2427 26.7528 20.808C27.0941 21.3627 27.2648 22.0293 27.2648 22.808C27.2648 23.576 27.0888 24.2373 26.7368 24.792C26.3955 25.3467 25.9208 25.7733 25.3128 26.072C24.7048 26.3707 24.0008 26.52 23.2008 26.52H20.7528V31H18.8648ZM20.7528 24.84H23.2488C23.6755 24.84 24.0488 24.7547 24.3688 24.584C24.6888 24.4133 24.9395 24.1787 25.1208 23.88C25.3021 23.5707 25.3928 23.208 25.3928 22.792C25.3928 22.376 25.3021 22.0187 25.1208 21.72C24.9395 21.4107 24.6888 21.176 24.3688 21.016C24.0488 20.8453 23.6755 20.76 23.2488 20.76H20.7528V24.84ZM29.2086 31V19.08H31.0966V25.544L30.6006 25.352L35.9926 19.08H38.3446L33.5766 24.664L33.6726 23.32L38.5366 31H36.3126L32.8246 25.544L31.0966 27.56V31H29.2086Z" fill="white"/>
</svg>
